/* XPM */
static char *_650110223247[] = {
/* columns rows colors chars-per-pixel */
"64 64 49 1 ",
"  c #7E2626",
". c #832C2C",
"X c #873434",
"o c #8B3333",
"O c #8D3E3E",
"+ c #983D3D",
"@ c #AB2F2F",
"# c #AC3232",
"$ c #AF3838",
"% c #B23B3B",
"& c #8F4141",
"* c #954949",
"= c #984F4F",
"- c #9B5353",
"; c #9E5959",
": c #A54949",
"> c #AA4D4D",
", c #B54242",
"< c #B84646",
"1 c #BB4A4A",
"2 c #AC5151",
"3 c #A35A5A",
"4 c #AB5F5F",
"5 c #B55757",
"6 c #BE5252",
"7 c #B75959",
"8 c #BA5C5C",
"9 c #B56262",
"0 c #BC6868",
"q c #C15555",
"w c #C45C5C",
"e c #C85F5F",
"r c #C66464",
"t c #C96363",
"y c #C26A6A",
"u c #CD6A6A",
"i c #D06D6D",
"p c #CF7272",
"a c #D47373",
"s c #D57B7B",
"d c #D87E7E",
"f c #D88181",
"g c #DE8A8A",
"h c #E08E8E",
"j c #E39494",
"k c #E79A9A",
"l c #E99E9E",
"z c #EBA1A1",
"x c None",
/* pixels */
"xxxxxxxxxxxxxxxxxxxxxxxxxxxxxxxxxxxxxxxxxxxxxxxxxxxxxxxxxxxxxxxx",
"xxxxxxxxxxxxxxxxxxxxxxxxxxxxxxxxxxxxxxxxxxxxxxxxxxxxxxxxxxxxxxxx",
"xxxxxxxxxxxxxxxxxxxxxxxxxxxxxxxxxxxxxxxxxxxxxxxxxxxxxxxxxxxxxxxx",
"xxxxxxxxxxxxxxxxxxxxxxxxxxxxxxxxxxxxxxxxxxxxxxxxxxxxxxxxxxxxxxxx",
"xxxxxxxxxxxxxxxxxxxxxxxxxxxxxxxxxxxxxxxxxxxxxxxxxxxxxxxxxxxxxxxx",
"xxxxxxxxxxxxxxxxxxxxxxxxxxxxxxxxxxxxxxxxxxxxxxxxxxxxxxxxxxxxxxxx",
"xxxxxxxxxxxxxxxxxxxxxxxxxxxxxxxxxxxxxxxxxxxxxxxxxxxxxxxxxxxxxxxx",
"xxxxxxxxxxxxxxxxxxxxxxxxxxxxxxxxxxxxxxxxxxxxxxxxxxxxxxxxxxxxxxxx",
"xxxxxxxxxxxxxxxxxxxxxxxxxxxxxxxxxxxxxxxxxxxxxxxxxxxxxxxxxxxxxxxx",
"xxxxxxxxxxxxxxxxxxxxxxxxxxxxxxxxxxxxxxxxxxxxxxxxxxxxxxxxxxxxxxxx",
"xxxxxxxxxxxxxxxxxxxxxxxxxxxxxxxxxxxxxxxxxxxxxxxxxxxxxxxxxxxxxxxx",
"xxxxxxxxxxxxxxxxxxxxxxxxxxxxxxxxxxxxxxxxxxxxxxxxxxxxxxxxxxxxxxxx",
"xxxxxxxxxxxxxxxxxxxxxxxxxxxxxxxxxxxxxxxxxxxxxxxxxxxxxxxxxxxxxxxx",
"xxxxxxxxxxxxxxxxxxxxxxxxxxxxxxxxxxxxxxxxxxxxxxxxxxxxxxxxxxxxxxxx",
"xxxxxxxxxxxxxxxxxxxxxxxxxxxxxxxxxxxxxxxxxxxxxxxxxxxxxxxxxxxxxxxx",
"xxxxxxxxxxxxxxxxxxxxxxxxxxxxxxxxxxxxxxxxxxxxxxxxxxxxxxxxxxxxxxxx",
"xxxxxxxxxxxxxxxxxxxxxxxxxxxxxxxaxaaiiuiuuaaxaxxxxxxxxxxxxxxxxxxx",
"xxxxxxxxxxxxxxxxxxxxxxxxxxxaaiuqqeh,$%%%%<qqqeasxxxxxxxxxxxxxxxx",
"xxxxxxxxxxxxxxxxxxxxxxxxaauq<%$@%ss$@@##@#####,quaxxxxxxxxxxxxxx",
"xxxxxxxxxxxxxxxxxxxxxxaat,%#@@%uha%%%%##########%waxxxxxxxxxxxxx",
"xxxxxxxxxxxxxxxxxxxxait<$####%sf6$6jjhq#########@#1axxxxxxxxxxxx",
"xxxxxxxxxxxxxxxxxxxit<####@$6skauujzklj6@#########1hsxxxxxxxxxxx",
"xxxxxxxxxxxxxxxxxxi1$####6ugkjhuuuurqszs$########$sjiaxxxxxxxxxx",
"xxxxxxxxxxxxxxxxxi<@####6klar,%#@@###%skq########qljqixxxxxxxxxx",
"xxxxxxxxxxxxxxxxaq@####%hlh%@########@,jh,######%jzs%uxxxxxxxxxx",
"xxxxxxxxxxxxxxxae%#@###%hzu##########$%szu##@##$szk6#qaxxxxxxxxx",
"xxxxxxxxxxxxxxxi%$%%$###uzs$#####$%%##@1kju,,ruslla$#<ixxxxxxxxx",
"xxxxxxxxxxxxxxi1%sjjs%##%fj%####%sjgur,$6jzjjlzzks%@@%ixxxxxxxxx",
"xxxxxxxxxxxxxxaufzjkljq%@uj%###@rzkjlzjf16uhjjhu6$$%%,uxxxxxxxxx",
"xxxxxxxxxxxxxxauut,qhlksujj%@$##rzp%6uuugu%%,%%@#6sgjjsxxxxxxxxx",
"xxxxxxxxxxxxxxu$@###,uhjjju$####,jj6@###6fs%####%gu,ugaxxxxxxxxx",
"xxxxxxxxxxxxxxi%######%%%%#######qkjq$##@%sj6###6j,##1axxxxxxxxx",
"xxxxxxxxxxxxxxu$##################6kkgpuuuszj%#@ult@$w4xxxxxxxxx",
"xxxxxxxxxxxxxxu$##################@6sjjkzlzla$#@uzr$ey;xxxxxxxxx",
"xxxxxxxxxxxxxxu<#########@%%%%%%%%@#$%%6uurt%@#@rlaty3;xxxxxxxxx",
"xxxxxxxxxxxxxx46#######%qufjjjjjjst%@#@$$$%%%%<qua823;xxxxxxxxxx",
"xxxxxxxxxxxxxx3u$####$uhkkhuuuuihlls%<qtrrrttrr>:oo*;xxxxxxxxxxx",
"xxxxxxxxxxxxxx3u<###%szhiq%##@@@,ujlfr2:o..oXoX.XO-;xxxxxxxxxxxx",
"xxxxxxxxxxxxxx;0q##$aju,##@#######quio X&OO&=----3;xxxxxxxxxxxxx",
"xxxxxxxxxxxxxx;9i,#6jq@@###########%r.X-;x;3xxxxxxxxxxxxxxxxxxxx",
"xxxxxxxxxxxxxx;*8t%si##############%tX=;xxxxxxxxxxxxxxxxxxxxxxxx",
"xxxxxxxxxxxxxxx=X7ujq@#############<tX-xxxxxxxxxxxxxxxxxxxxxxxxx",
"xxxxxxxxxxxxxxx;X.8s%@###########@%i>.-xxxxxxxxxxxxxxxxxxxxxxxxx",
"xxxxxxxxxxxxxxx;*..5uq%$#########<t5..-xxxxxxxxxxxxxxxxxxxxxxxxx",
"xxxxxxxxxxxxxxxx;* .+8req%$$##%qtr:..O;xxxxxxxxxxxxxxxxxxxxxxxxx",
"xxxxxxxxxxxxxxxxx;*O..o:8tteqtr8:o.X*-xxxxxxxxxxxxxxxxxxxxxxxxxx",
"xxxxxxxxxxxxxxxxxxx;-OO..oo:>:X..O=;3xxxxxxxxxxxxxxxxxxxxxxxxxxx",
"xxxxxxxxxxxxxxxxxxxxx;3-=*OOOO&--3xxxxxxxxxxxxxxxxxxxxxxxxxxxxxx",
"xxxxxxxxxxxxxxxxxxxxxxxxxx;;3;;xxxxxxxxxxxxxxxxxxxxxxxxxxxxxxxxx",
"xxxxxxxxxxxxxxxxxxxxxxxxxxxxxxxxxxxxxxxxxxxxxxxxxxxxxxxxxxxxxxxx",
"xxxxxxxxxxxxxxxxxxxxxxxxxxxxxxxxxxxxxxxxxxxxxxxxxxxxxxxxxxxxxxxx",
"xxxxxxxxxxxxxxxxxxxxxxxxxxxxxxxxxxxxxxxxxxxxxxxxxxxxxxxxxxxxxxxx",
"xxxxxxxxxxxxxxxxxxxxxxxxxxxxxxxxxxxxxxxxxxxxxxxxxxxxxxxxxxxxxxxx",
"xxxxxxxxxxxxxxxxxxxxxxxxxxxxxxxxxxxxxxxxxxxxxxxxxxxxxxxxxxxxxxxx",
"xxxxxxxxxxxxxxxxxxxxxxxxxxxxxxxxxxxxxxxxxxxxxxxxxxxxxxxxxxxxxxxx",
"xxxxxxxxxxxxxxxxxxxxxxxxxxxxxxxxxxxxxxxxxxxxxxxxxxxxxxxxxxxxxxxx",
"xxxxxxxxxxxxxxxxxxxxxxxxxxxxxxxxxxxxxxxxxxxxxxxxxxxxxxxxxxxxxxxx",
"xxxxxxxxxxxxxxxxxxxxxxxxxxxxxxxxxxxxxxxxxxxxxxxxxxxxxxxxxxxxxxxx",
"xxxxxxxxxxxxxxxxxxxxxxxxxxxxxxxxxxxxxxxxxxxxxxxxxxxxxxxxxxxxxxxx",
"xxxxxxxxxxxxxxxxxxxxxxxxxxxxxxxxxxxxxxxxxxxxxxxxxxxxxxxxxxxxxxxx",
"xxxxxxxxxxxxxxxxxxxxxxxxxxxxxxxxxxxxxxxxxxxxxxxxxxxxxxxxxxxxxxxx",
"xxxxxxxxxxxxxxxxxxxxxxxxxxxxxxxxxxxxxxxxxxxxxxxxxxxxxxxxxxxxxxxx",
"xxxxxxxxxxxxxxxxxxxxxxxxxxxxxxxxxxxxxxxxxxxxxxxxxxxxxxxxxxxxxxxx",
"xxxxxxxxxxxxxxxxxxxxxxxxxxxxxxxxxxxxxxxxxxxxxxxxxxxxxxxxxxxxxxxx"
};
