/* XPM */
static char *_650113667128[] = {
/* columns rows colors chars-per-pixel */
"64 64 13 1 ",
"  c #2E373E",
". c #34383D",
"X c #4E2218",
"o c #703520",
"O c #1C3643",
"+ c #1E3844",
"@ c #213641",
"# c #2E474E",
"$ c #B9431F",
"% c #914121",
"& c #954221",
"* c #B14321",
"= c #C2411A",
/* pixels */
"OOOOOOOOOOOOOOOOOOOOOOOOOOOOOOOOOOOOOOOOOOO#+OOOOOOOOOOOOOOOOOOO",
"OOOOOOOOOOOOOOOOOOOOOOOOOOOOOOOOOOOOOOOOOOOOOOOOOOOOOOOOOOOOOOOO",
"@OOOOOOOOOOOOOOOOOOOOOOOOOOOOOOOOOOOOOOOOOOOOOOOOOOOOOOOOOOOOOOO",
"*OOOOOOOOOOOOOOOOOOOOOOOOOOOOOOOOOOOOOOOOOOOOOOOOOOOOOOOOOOOOOO%",
"*OOOOOOOOOOOOOOOOOOOOOOOOOOOOOOOOOOOOOOOOOOOOOOOOOOOOOOOOOOOOO%%",
"**OOOOOOOOOOOOOOOOOOOOOOOOOOOOOOOOOOOOOOOOOOOOOOOOOOOOOOOOOOO%%%",
"**OOOOOOOOOOOOOOOOOOOOOOOOOOOOOOOOOOOOOOOOOOOOOOOOOOOOOOOOOO%%%%",
"***OOOOOOOOOOOOOOOOOOOOOOOOOOOOOOOOOOOOOOOOOOOOOOOOOOOOOOOO%%%%%",
"&**OOOOOOOOOOOOOOOOOOOOOOOOOOOOOOOOOOOOOOOOOOOOOOOOOOOOOOO%%%%%%",
"**&**OOOOOOOOOOOOOOOOOOOOOOOOOOOOOOOOOOOOOOOOOOOOOOOOOOO%%%%%%%%",
"*******OOOOOOOOOOOOOOOOOOOOOOOOOOOOOOOOOOOOOOOOOOOOOOO%%%%%%%%%%",
"********OOOOOOOOOOOOOOOOOOOOOOOOOOOOOOOOOOOOOOOOOOOOO%%%%%%%%%%%",
"%*********OOOOOOOOOOOOOOOOOOOOOOOOOOOOOOOOOOOOOOOOOOO%%%%%%%%%%%",
"%**********OOOOOOOOOOOOOOOOOOOOOOOOOOOOOOOOOOOOOOOOO%%%%%%%%%%%%",
"%%**********OOOOOOOOOOOOOOOOOOOOOOOOOOOOOOOOOOOOOOOO%%%%%%%%%%%%",
"%%%%*********OOOOOOOOOOOOOOOOOOOOOOOOOOOOOOOOOOOOO%%%%%%%%%%%%%%",
"%%%%%*********OOOOOOOOOOOOOOOOOOOOOOOOOOOOOOOOOOO%%%%%%%%%%%%%%%",
"%%%%%%*********OOOOOOOOOOOOOOOOOOOOOOOOOOOOOO%%%%%%%%%%%%%%%%%%%",
"%%%%%%%*********OOOOOOOOOOOOOOOOOOOOOOOOOOOO%%%%%%%%%%%%%%%%%%%%",
"%=***%%%%*********.OOOOOOOOOOOOOOOOOOOOOOOO%%%%%%%%%%%%%%%%%%%%%",
"%%****%=%%%*********OOOOOOOOOOOOOOOOOOOOOO%%%%%%%%%%%%%%%%%%%%%%",
"%%%%%%%%**%%%*********OOOOOOOOOOOOOOOOOOO%%%%%%%%%%%%%%%%%%%%%%%",
"%%%%%%%%%%**************OOOOOOOOOOOOOOOOO%%%%%%%%%%%%%%%%%%%%%%%",
"%%%%%%%%%%%%%*&&&*********OOOOOOOOOOOOOO%%%%%%%%%%%%%%%%%%%%%%%%",
"%%%%%%%%%%%%%**&&&&********OOOOOOOOOOO%%%%%%%%%%%%%%%%%%%%%%%%%%",
"%%%%%%%=*=%%%**&&&&&*******OOOOOOOOOO%%%%%%%%%%%%%%%%%%%%%%%%%%%",
"%%%%%%%***%%*&&&&**&&&******OOOOOO%%%%%%%%%%%%%%%%%%%%%%%%%%%%%%",
"%%%%%%%%=%%**********&*******OO %%%%%%%%%%%%%%%%%%%%%%%%%%%%%%%%",
"%%%%%%%%%%%*************&*****O%%*%%%%%%%%%%%%%%%%%%%%%%%%%%%%%%",
"%%%%%%%%%%********************%%%*%%%%%%%%%%%%%%%%%%%%%%%%%%%%%%",
"%%%%%%%%%=*********************%%%%**%%%%%%%%%%%%%%%%%%%%%%%%%%%",
"%%%%%%%%%%%%*&&&*****************%%%**%%%%%%%%%%%%%%%%%%%%%%%%%%",
"%%%%%%%%%%%%%*&&&&****************%%%*%%%%%%%%%%%%%%%%%%%%%%%%%%",
"%%%%%%%%%%%%%%*&&*&&&&*************%%%%%%%%%%%%%%%%%%%%%%%%%%%%%",
"%%%%%%%%%%%%%%*******&&*************$%%%%%%%%%%%%%%%%%%%%%%%%%%%",
"%%%%%%%%%%%%%%%**************&********%%%%%%%%%%%%%%%%%%%%%%%%%%",
"%%%%%%%%%%%%%%%%**********&&*&**********%%%%%%%%%%%%%%%%%%%%%%%%",
"%%%%%%%%%%%%%%%%%**%%%*****&&*************%%%%%%%%%%%%%%%%%%%%%%",
"%%%%%%%%%%%%%%%%%%%%%%%%%********&**********%%%%%%%%%%%%%%%%%%%%",
"%%%%%%%%%%%%%%%%%%%%%%%%%******&***&**********%%%%%%%%%%%%%%%%%%",
"%%%%%%%%%%%%%%%%%%%%%%%%%%********&*&***********%%%%%%%%%%%%%%%%",
"%%%%%%%%%%%%%%%%%%%%%%%%%%%**********&**%*********%%%%%%%%%%%%%%",
"ooooo%%%%%%%%%%%%%%%%%%%%%%=********&**&***%*******%%%%%%%%%%%%%",
"oooooooo%%%%%%%%%%%%%%%%%%%%%************%%%*********%%%%%%%%%%%",
"oooooooooooo%%%%%%%%%%%%%%%%%%%%*****%%%%%%%%%*******==%%%%%%%%%",
"ooooooooooooooo%%%%%%%%%%%%%%%%%%***%%*%%%****%%%***%%%%%%%%=***",
"oooooooooooooooooooo%%%%%%%%%%%%%%%%%%%%****%%%%%%%%%%%%%%%%%***",
"oooooooooooooooooooooooo%%%%%%%%%%%%%%%%%%%%%%%%%%%%%%%%%%%%%%%%",
"oooooooooooooooooooooooooooo%%%%%%%%%%%%%%%%%%%%%%%%%%%%%%%%%***",
"ooooooooooooooooooooooooooooooooooooo%%%%%%%%%%%%%%%%%%%%%%%%%%%",
"ooooooooooooooooooooooooooooooooooooooooo%%%%%%%oo%%%%%%%%%%%%%%",
"ooooooooooooooooooooooooooooooooooooooooooo%%%ooooooo%%%%%%%%%%o",
"oooooooooooooooooooooooooooooooooooooooooooooooooooooooo%%%%%XXX",
"oooooooooooooooooooooooooooooooooooooooooooooooooooooooooooXXXXX",
"ooooooooooooooooooooooooooooooooooooooooooooooooooooooooooXXXXXX",
"ooooooooooooooooooooooooooooooooooooooooooooooooooooooooXXXXXXXX",
"ooooooooooooooooooooooooooooooooooooooooooooooooooooXXXXXXXXXXXX",
"ooooooooooooooooooooooooooooooooooooooooooooooooXXXXXXXXXXXXXXXX",
"oooooooooooooooooooooooooooooooooooooooooXXXXXXXXXXXXXXXXXXXXXXX",
"XXoooooooooooooooXXXXXXoooooooooXXXXXXXXXXXXXXXXXXXXXXXXXXXXXXXX",
"XXXXXXooooooooXXXXXXXXXXXXXXXXXXXXXXXXXXXXXXXXXXXXXXXXXXXXXXXXXX",
"XXXXXXXXoooooXXXXXXXXXXXXXXXXXXXXXXXXXXXXXXXXXXXXXXXXXXXXXXXXXXX",
"XXXXXXXXXoooXXXXXXXXXXXXXXXXXXXXXXXXXXXXXXXXXXXXXXXXXXXXXXXXXXXX",
"XXXXXXXXXXXXXXXXXXXXXXXXXXXXXXXXXXXXXXXXXXXXXXXXXXXXXXXXXXXXXXXX"
};
