/* XPM */
static char *_650282580183[] = {
/* columns rows colors chars-per-pixel */
"64 64 8 1 ",
"  c #100D0D",
". c #1B1616",
"X c #2D2727",
"o c #591010",
"O c #BC1313",
"+ c #DBCDCD",
"@ c #F0EAEA",
"# c None",
/* pixels */
"################################################################",
"###########################################........#############",
"#######################################.....X.....XXX###########",
"######################################..........XXXXXXX#########",
"#####################################........XXXXXXXXXXXX#######",
"####################################.......XXXXXXXXXXXXXXX######",
"##################################.........XXXXXXXXXXXXXXX######",
"#################################.....X.XXXXX  XXXXXXXXXXXX#####",
"################################......XXXXXX    XXXXXXXXXXXX####",
"##############################........XXXXX   @ XXXXXXXXXXXX.###",
"#############################.......XXXXXXX     XXXXXXXXXXXXX###",
"############################........XXXXXXXX   XXXXXXXXXXXXXXX##",
"###########################......XXXXXXXXXXXXXXXXXXXXXXXXXXXXX##",
"##########################......XXXXXXXXXXXXXXXXXXXXXXXXXXXXXXX#",
"########################........XXXXXXXXXXXXXXXXXXXXXXXXXXXXXXX#",
"#######################......X.XXXXXXXXXX++XXXXXXXXXXXX  XXXXXX#",
"###################............XXXXXXXXXX++   XXXXXXXX    XXXXX#",
"#################........XXXX.XXXXXXXXXX++     XXXXXX   @ XXXXX#",
"################....XXXXXXXXXXXXXXXXXXXXXOOO    XXXXX     XXXXX#",
"##############.......XXXXXXXXXXXXXXXXXXXOOOO     XXXXX   XXXXXX#",
"#############........XXXXXXXXXXXXXXXXXXXOOO      XXXXXXXXXXXXXX#",
"############.....XXXXXXXXXXXXXXXXXXXXXXXOOO      ++XXXXXXXXXXXX#",
"###########......XXXXXXXXX..XXXXXXXXXXXOOOooooo  ++XXXXXXXXXXXX#",
"###########....XXXXXXXXXX...XXXXXXXXXXXOOOoooooo++XXXXXXXXXXXX##",
"##########......XXXXXXX....XXXXXXXXXXXXOOoooooXX+XXXXXXXXXXXXX##",
"##########....XXXXXXXXX...  XXXXXXXXXXXOoooXXXXXXXXXXXXXXXXXX###",
"##########......XXXX.X...  XXXXXXXXXXXOOooXXXXXXXXXXXXXXXXXXX###",
"##########.....XXXXX....  XXXXXXXXXXXXOoooXXXXXXXXXXXXXXXXXX####",
"##########.....XX......  XXXXXXXXXXXXXOooXXXXXXXXXXXXXXXXXX#####",
"##########.....XXX..... XXXXXXXXXXXXXXOoXXXXXXXXXXXXXXXXXXX#####",
"##########  ...XXXX.... XXXXXXXXXXXXXXXXXXXXXXXXXXXXXXXXXX######",
"########### .XXXXXXX...  XXXXXXXXXXXXXXXXXXXXXXXX.XXXXXXXX######",
"###########  ..XXXXX...  XXXXXXXXXXXXXXXXXXXXXXX..XXXXXXXX######",
"############  ..XXXXX..  XXXXXXXXXXXXXXXXXXXXX ...XXXXXXXX######",
"#############  ..XXXXX..  XXXXXXXXXXXXXXXXXX  ...XXXXXXXXX######",
"#############. ..XXXXX..  XXXXXXXXXXXXXXXXX  ...XXXXXXXXXX######",
"#############.. ...XXXX.  XXXXXXXXXXXXXXXX  ...XXXXXXXXXXX######",
"#############..   ..XXX.. XXXXXXXXXXXXXXX  ....XXXXXXXXXX#######",
"#############....  .XXXX  XXXXXXXXXXXXXXX ....XXXXXXXXXXX#######",
"#############....X       XXXXXXXXXXXXXXX ....XXXXXXXXXXX.#######",
"############....XXXXXXXXXXXXXXXXXXXXXXX  ...XXXXXXXXXXXX #######",
"############.....XXXXXXXXXXXXXXXXXXXXXX ....XXXXXXXXXXX ########",
"############......XXXXXXXXXXXXXXXXXXXXX ...XXXXXXXXXXXX ########",
"############......XXXXXXXXXXXXXXXXXXXXX ..XXXXXXXXXXXX #########",
"############.....XXXXXXXXXXXXXXXXXXXXXX ..XXXXXXXXXX  ##########",
"############......XXXXXXXXXXXXXXXXXXXXX   XXXXXXXX  XX##########",
"############.......XXXXXXXXXXXXXXXXXXXXXX          XXX##########",
"############.....X.XXXXXXXXXXXXXXXXXXXXXXXXXXXXXXXXXXX##########",
"############.....XXXXXXXXXXXXXXXXXXXXXXXXXXXXXXXXXXXXX##########",
"############....XXXXXXXXXXXXXXXXXXXXXXXXXXXXXXXXXXXXXX##########",
"############..X..XXXXXXXXXXXXXXXXXXXXXXXXXXXXXXXXXXXXX##########",
"############..XX.XXXXXXXXXXXXXXXXXXXXXXXXXXXXXXXXXXXXX##########",
"############....XXXXXXXXXXXXXXXXXXXXXXXXXXXXXXXXXXXXXX##########",
"############...XXXXXXXXXXXXXXXXXXXXXXXXXXXXXXXXXXXXXXX##########",
"############....XXXXXXXXXXXXXXXXXXXXXXXXXXXXXXXXXXXXXX##########",
"############.....XXXXX.....XXXXXXXXXXXXXXXXXXXXXXXXXXX##########",
"############.....XXXXX####....................XXXXXXXX##########",
"############.....XXXX######################....XXXXXXX##########",
"############....XXXXX######################.....XXXXXX##########",
"############...XXXXXX######################.....XXXXXX##########",
"############....XXXX########################.....XXXXX##########",
"############....XXX.#########################....XXX..##########",
"#############...X..###########################..XXX..###########",
"##############....#############################.....############"
};
